{
  "accessors": [
    {
      "bufferView": 2,
      "componentType": 5126,
      "count": 2867,
      "max": [
        1.1499403715133667,
        0.8921765089035034,
        0.7482412457466125
      ],
      "min": [
        -1.1499403715133667,
        -0.8921765089035034,
        -0.7482412457466125
      ],
      "type": "VEC3"
    },
    {
      "bufferView": 2,
      "byteOffset": 34404,
      "componentType": 5126,
      "count": 2867,
      "max": [
        1.0,
        1.0,
        1.0
      ],
      "min": [
        -1.0,
        -1.0,
        -1.0
      ],
      "type": "VEC3"
    },
    {
      "bufferView": 1,
      "componentType": 5126,
      "count": 2867,
      "max": [
        0.875,
        1.0
      ],
      "min": [
        0.0,
        0.0
      ],
      "type": "VEC2"
    },
    {
      "bufferView": 0,
      "componentType": 5125,
      "count": 5379,
      "type": "SCALAR"
    },
    {
      "bufferView": 2,
      "byteOffset": 68808,
      "componentType": 5126,
      "count": 50,
      "max": [
        0.09306338429450989,
        -0.8525812029838562,
        0.48021841049194336
      ],
      "min": [
        -0.09306341409683228,
        -0.8525812029838562,
        0.17921991646289825
      ],
      "type": "VEC3"
    },
    {
      "bufferView": 2,
      "byteOffset": 69408,
      "componentType": 5126,
      "count": 50,
      "max": [
        0.0,
        -1.0,
        6.0663287513307296e-06
      ],
      "min": [
        0.0,
        -1.0,
        -6.138961180113256e-05
      ],
      "type": "VEC3"
    },
    {
      "bufferView": 1,
      "byteOffset": 22936,
      "componentType": 5126,
      "count": 50,
      "max": [
        0.0,
        0.0
      ],
      "min": [
        0.0,
        0.0
      ],
      "type": "VEC2"
    },
    {
      "bufferView": 0,
      "byteOffset": 21516,
      "componentType": 5125,
      "count": 78,
      "type": "SCALAR"
    },
    {
      "bufferView": 2,
      "byteOffset": 70008,
      "componentType": 5126,
      "count": 17891,
      "max": [
        1.1799405813217163,
        0.922176718711853,
        -0.5632360577583313
      ],
      "min": [
        -1.1799405813217163,
        -0.922176718711853,
        -0.7483005523681641
      ],
      "type": "VEC3"
    },
    {
      "bufferView": 2,
      "byteOffset": 284700,
      "componentType": 5126,
      "count": 17891,
      "max": [
        1.0,
        1.0,
        1.0
      ],
      "min": [
        -1.0,
        -1.0,
        -1.0
      ],
      "type": "VEC3"
    },
    {
      "bufferView": 1,
      "byteOffset": 23336,
      "componentType": 5126,
      "count": 17891,
      "max": [
        0.4059048891067505,
        1.0000001192092896
      ],
      "min": [
        0.3749999701976776,
        0.0
      ],
      "type": "VEC2"
    },
    {
      "bufferView": 0,
      "byteOffset": 21828,
      "componentType": 5125,
      "count": 26880,
      "type": "SCALAR"
    },
    {
      "bufferView": 2,
      "byteOffset": 499392,
      "componentType": 5126,
      "count": 11230,
      "max": [
        1.1499406099319458,
        0.8899839520454407,
        0.7374100685119629
      ],
      "min": [
        -1.1499407291412354,
        -0.8899639844894409,
        7.352686992589952e-08
      ],
      "type": "VEC3"
    },
    {
      "bufferView": 2,
      "byteOffset": 634152,
      "componentType": 5126,
      "count": 11230,
      "max": [
        1.0,
        0.9996674656867981,
        1.0
      ],
      "min": [
        -1.0,
        -0.9999392628669739,
        -1.0
      ],
      "type": "VEC3"
    },
    {
      "bufferView": 1,
      "byteOffset": 166464,
      "componentType": 5126,
      "count": 11230,
      "max": [
        0.0,
        0.0
      ],
      "min": [
        0.0,
        0.0
      ],
      "type": "VEC2"
    },
    {
      "bufferView": 0,
      "byteOffset": 129348,
      "componentType": 5125,
      "count": 67392,
      "type": "SCALAR"
    },
    {
      "bufferView": 2,
      "byteOffset": 768912,
      "componentType": 5126,
      "count": 4008,
      "max": [
        -0.1893385499715805,
        0.863159716129303,
        1.089037299156189
      ],
      "min": [
        -0.8782119750976563,
        -0.863159716129303,
        -1.089037299156189
      ],
      "type": "VEC3"
    },
    {
      "bufferView": 2,
      "byteOffset": 817008,
      "componentType": 5126,
      "count": 4008,
      "max": [
        1.0,
        1.0,
        1.0
      ],
      "min": [
        -1.0,
        -1.0,
        -1.0
      ],
      "type": "VEC3"
    },
    {
      "bufferView": 1,
      "byteOffset": 256304,
      "componentType": 5126,
      "count": 4008,
      "max": [
        0.8750001192092896,
        1.0000001192092896
      ],
      "min": [
        0.125,
        -3.334171827518162e-10
      ],
      "type": "VEC2"
    },
    {
      "bufferView": 0,
      "byteOffset": 398916,
      "componentType": 5125,
      "count": 6012,
      "type": "SCALAR"
    },
    {
      "bufferView": 2,
      "byteOffset": 865104,
      "componentType": 5126,
      "count": 4124,
      "max": [
        0.07874935865402222,
        0.3558681905269623,
        0.0946887880563736
      ],
      "min": [
        -2.325479745864868,
        -0.35586825013160706,
        -0.16281059384346008
      ],
      "type": "VEC3"
    },
    {
      "bufferView": 2,
      "byteOffset": 914592,
      "componentType": 5126,
      "count": 4124,
      "max": [
        1.0,
        1.0,
        1.0
      ],
      "min": [
        -1.0,
        -1.0,
        -1.0
      ],
      "type": "VEC3"
    },
    {
      "bufferView": 1,
      "byteOffset": 288368,
      "componentType": 5126,
      "count": 4124,
      "max": [
        0.8750001192092896,
        1.0000001192092896
      ],
      "min": [
        0.0,
        0.0
      ],
      "type": "VEC2"
    },
    {
      "bufferView": 0,
      "byteOffset": 422964,
      "componentType": 5125,
      "count": 17760,
      "type": "SCALAR"
    },
    {
      "bufferView": 2,
      "byteOffset": 964080,
      "componentType": 5126,
      "count": 12949,
      "max": [
        0.8565686941146851,
        2.130157470703125,
        1.049999475479126
      ],
      "min": [
        -0.8565686941146851,
        -0.04328048974275589,
        -0.2640876770019531
      ],
      "type": "VEC3"
    },
    {
      "bufferView": 2,
      "byteOffset": 1119468,
      "componentType": 5126,
      "count": 12949,
      "max": [
        1.0,
        1.0,
        1.0
      ],
      "min": [
        -1.0,
        -1.0,
        -1.0
      ],
      "type": "VEC3"
    },
    {
      "bufferView": 1,
      "byteOffset": 321360,
      "componentType": 5126,
      "count": 12949,
      "max": [
        0.8750001192092896,
        1.0000001192092896
      ],
      "min": [
        0.1249999925494194,
        0.0
      ],
      "type": "VEC2"
    },
    {
      "bufferView": 0,
      "byteOffset": 494004,
      "componentType": 5125,
      "count": 19440,
      "type": "SCALAR"
    },
    {
      "bufferView": 2,
      "byteOffset": 1274856,
      "componentType": 5126,
      "count": 29760,
      "max": [
        2.0618486404418945,
        0.033829499036073685,
        0.03382955119013786
      ],
      "min": [
        -0.2907407581806183,
        -1.1718719005584717,
        -1.7999610900878906
      ],
      "type": "VEC3"
    },
    {
      "bufferView": 2,
      "byteOffset": 1631976,
      "componentType": 5126,
      "count": 29760,
      "max": [
        0.9951539635658264,
        0.9904397130012512,
        0.9951412081718445
      ],
      "min": [
        -0.9951426982879639,
        -0.9904402494430542,
        -0.9951485395431519
      ],
      "type": "VEC3"
    },
    {
      "bufferView": 1,
      "byteOffset": 424952,
      "componentType": 5126,
      "count": 29760,
      "max": [
        1.0,
        1.0
      ],
      "min": [
        0.0,
        0.5
      ],
      "type": "VEC2"
    },
    {
      "bufferView": 0,
      "byteOffset": 571764,
      "componentType": 5125,
      "count": 43200,
      "type": "SCALAR"
    }
  ],
  "asset": {
    "extras": {
      "author": "estevanscalperbot (https://sketchfab.com/estevanscalperbot)",
      "license": "CC-BY-4.0 (http://creativecommons.org/licenses/by/4.0/)",
      "source": "https://sketchfab.com/3d-models/golden-treasure-chest-a217fca36ed240e9b8e90232d78860b6",
      "title": "Golden Treasure Chest"
    },
    "generator": "Sketchfab-16.85.0",
    "version": "2.0"
  },
  "bufferViews": [
    {
      "buffer": 0,
      "byteLength": 744564,
      "name": "floatBufferViews",
      "target": 34963
    },
    {
      "buffer": 0,
      "byteLength": 663032,
      "byteOffset": 744564,
      "byteStride": 8,
      "name": "floatBufferViews",
      "target": 34962
    },
    {
      "buffer": 0,
      "byteLength": 1989096,
      "byteOffset": 1407596,
      "byteStride": 12,
      "name": "floatBufferViews",
      "target": 34962
    }
  ],
  "buffers": [
    {
      "byteLength": 3396692,
      "uri": "scene.bin"
    }
  ],
  "extensionsUsed": [
    "KHR_materials_specular"
  ],
  "materials": [
    {
      "doubleSided": true,
      "name": "Gold",
      "pbrMetallicRoughness": {
        "baseColorFactor": [
          0.800047,
          0.362249,
          0.0,
          1.0
        ],
        "metallicFactor": 0.0,
        "roughnessFactor": 0.8771993840516392
      }
    },
    {
      "doubleSided": true,
      "name": "Black",
      "pbrMetallicRoughness": {
        "baseColorFactor": [
          0.0,
          0.0,
          0.0,
          1.0
        ],
        "metallicFactor": 0.0
      }
    },
    {
      "doubleSided": true,
      "name": "Wood",
      "pbrMetallicRoughness": {
        "baseColorFactor": [
          0.220983,
          0.0564228,
          0.0220702,
          1.0
        ],
        "metallicFactor": 0.0
      }
    },
    {
      "doubleSided": true,
      "extensions": {
        "KHR_materials_specular": {
          "specularColorFactor": [
            1.0,
            1.0,
            1.0
          ],
          "specularFactor": 0.4805685896322985
        }
      },
      "name": "Metal",
      "pbrMetallicRoughness": {
        "baseColorFactor": [
          0.04378553567868434,
          0.07222417440906906,
          0.08633198056456469,
          1.0
        ],
        "metallicFactor": 0.0,
        "roughnessFactor": 0.5194314103677016
      }
    }
  ],
  "meshes": [
    {
      "name": "Cube_Gold_0",
      "primitives": [
        {
          "attributes": {
            "NORMAL": 1,
            "POSITION": 0,
            "TEXCOORD_0": 2
          },
          "indices": 3,
          "material": 0,
          "mode": 4
        }
      ]
    },
    {
      "name": "Cube_Black_0",
      "primitives": [
        {
          "attributes": {
            "NORMAL": 5,
            "POSITION": 4,
            "TEXCOORD_0": 6
          },
          "indices": 7,
          "material": 1,
          "mode": 4
        }
      ]
    },
    {
      "name": "Cube.001_Gold_0",
      "primitives": [
        {
          "attributes": {
            "NORMAL": 9,
            "POSITION": 8,
            "TEXCOORD_0": 10
          },
          "indices": 11,
          "material": 0,
          "mode": 4
        }
      ]
    },
    {
      "name": "Cube.002_Gold_0",
      "primitives": [
        {
          "attributes": {
            "NORMAL": 13,
            "POSITION": 12,
            "TEXCOORD_0": 14
          },
          "indices": 15,
          "material": 0,
          "mode": 4
        }
      ]
    },
    {
      "name": "Cube.003_Wood_0",
      "primitives": [
        {
          "attributes": {
            "NORMAL": 17,
            "POSITION": 16,
            "TEXCOORD_0": 18
          },
          "indices": 19,
          "material": 2,
          "mode": 4
        }
      ]
    },
    {
      "name": "Cube.004_Gold_0",
      "primitives": [
        {
          "attributes": {
            "NORMAL": 21,
            "POSITION": 20,
            "TEXCOORD_0": 22
          },
          "indices": 23,
          "material": 0,
          "mode": 4
        }
      ]
    },
    {
      "name": "Cube.009_Wood_0",
      "primitives": [
        {
          "attributes": {
            "NORMAL": 25,
            "POSITION": 24,
            "TEXCOORD_0": 26
          },
          "indices": 27,
          "material": 2,
          "mode": 4
        }
      ]
    },
    {
      "name": "Sphere.008_Metal_0",
      "primitives": [
        {
          "attributes": {
            "NORMAL": 29,
            "POSITION": 28,
            "TEXCOORD_0": 30
          },
          "indices": 31,
          "material": 3,
          "mode": 4
        }
      ]
    }
  ],
  "nodes": [
    {
      "children": [
        1
      ],
      "matrix": [
        1.0,
        0.0,
        0.0,
        0.0,
        0.0,
        2.220446049250313e-16,
        -1.0,
        0.0,
        0.0,
        1.0,
        2.220446049250313e-16,
        0.0,
        0.0,
        0.0,
        0.0,
        1.0
      ],
      "name": "Sketchfab_model"
    },
    {
      "children": [
        2
      ],
      "matrix": [
        0.009999999776482582,
        0.0,
        0.0,
        0.0,
        0.0,
        0.0,
        0.009999999776482582,
        0.0,
        0.0,
        -0.009999999776482582,
        0.0,
        0.0,
        0.0,
        0.0,
        0.0,
        1.0
      ],
      "name": "GoldenChest.fbx"
    },
    {
      "children": [
        3,
        6,
        8,
        10,
        12,
        14,
        16
      ],
      "name": "RootNode"
    },
    {
      "children": [
        4,
        5
      ],
      "matrix": [
        100.0,
        0.0,
        0.0,
        0.0,
        0.0,
        -1.629206793918314e-05,
        -99.99999999999868,
        0.0,
        0.0,
        99.99999999999868,
        -1.629206793918314e-05,
        0.0,
        0.0,
        77.68197631835938,
        0.0,
        1.0
      ],
      "name": "Cube"
    },
    {
      "mesh": 0,
      "name": "Cube_Gold_0"
    },
    {
      "mesh": 1,
      "name": "Cube_Black_0"
    },
    {
      "children": [
        7
      ],
      "matrix": [
        100.0,
        0.0,
        0.0,
        0.0,
        0.0,
        -1.629206793918314e-05,
        -99.99999999999868,
        0.0,
        0.0,
        99.99999999999868,
        -1.629206793918314e-05,
        0.0,
        0.0,
        77.68197631835938,
        0.0,
        1.0
      ],
      "name": "Cube.001"
    },
    {
      "mesh": 2,
      "name": "Cube.001_Gold_0"
    },
    {
      "children": [
        9
      ],
      "matrix": [
        100.0,
        0.0,
        0.0,
        0.0,
        -0.0,
        -1.629206793918314e-05,
        -99.99999999999868,
        0.0,
        0.0,
        99.99999999999868,
        -1.629206793918314e-05,
        0.0,
        -5.9604644775390625e-06,
        152.84344482421875,
        -2.384185791015625e-05,
        1.0
      ],
      "name": "Cube.002"
    },
    {
      "mesh": 3,
      "name": "Cube.002_Gold_0"
    },
    {
      "children": [
        11
      ],
      "matrix": [
        -4.371138984105016e-06,
        -99.99999999999973,
        5.960463766996327e-06,
        0.0,
        -1.6292068227841128e-05,
        -5.960463056453591e-06,
        -99.9999999999985,
        0.0,
        99.99999999999858,
        -4.371139955550163e-06,
        -1.6292067961387602e-05,
        0.0,
        0.02918243408203125,
        136.35533142089844,
        -2.384185791015625e-05,
        1.0
      ],
      "name": "Cube.003"
    },
    {
      "mesh": 4,
      "name": "Cube.003_Wood_0"
    },
    {
      "children": [
        13
      ],
      "matrix": [
        100.0,
        0.0,
        0.0,
        0.0,
        0.0,
        -1.629206793918314e-05,
        -99.99999999999868,
        0.0,
        0.0,
        99.99999999999868,
        -1.629206793918314e-05,
        0.0,
        112.33650207519531,
        78.84326934814453,
        -0.3006819486618042,
        1.0
      ],
      "name": "Cube.004"
    },
    {
      "mesh": 5,
      "name": "Cube.004_Gold_0"
    },
    {
      "children": [
        15
      ],
      "matrix": [
        4.371139006309477e-06,
        -1.1102230246251565e-14,
        -99.99999999999991,
        0.0,
        -99.99999999999982,
        -4.371139006309477e-06,
        -4.371139011860592e-06,
        0.0,
        -4.371139011860592e-06,
        99.99999999999991,
        -1.9984014443252818e-13,
        0.0,
        104.45149230957031,
        34.15530776977539,
        -0.5002573132514954,
        1.0
      ],
      "name": "Cube.009"
    },
    {
      "mesh": 6,
      "name": "Cube.009_Wood_0"
    },
    {
      "children": [
        17
      ],
      "matrix": [
        100.0,
        0.0,
        0.0,
        0.0,
        0.0,
        99.9999999999999,
        4.371138828673792e-06,
        0.0,
        0.0,
        -4.371138828673792e-06,
        99.9999999999999,
        0.0,
        -88.55535888671875,
        126.52867889404297,
        88.30657958984375,
        1.0
      ],
      "name": "Sphere.008"
    },
    {
      "mesh": 7,
      "name": "Sphere.008_Metal_0"
    }
  ],
  "scene": 0,
  "scenes": [
    {
      "name": "Sketchfab_Scene",
      "nodes": [
        0
      ]
    }
  ]
}
